# xmcd CD database file
#
# Track frame offsets:
#	182
#	16157
#	26915
#	34177
#	46872
#	58855
#	63142
#	67075
#	73392
#	83392
#	87205
#	105300
#	118702
#	134497
#	150447
#	154732
#	169917
#	177172
#	184992
#	191922
#	197065
#	211332
#	218905
#	224627
#	234620
#	241335
#	251537
#	262392
#	279877
#	318095
#	320010
#
# Disc length: 4424 seconds
#
# Revision: 0
# Processed by: cddbd v1.5.2PL0 Copyright (c) Steve Scherf et al.
# Submitted via: CDex 1.51
#
DISCID=cd11461f
DTITLE=JJ Rebillard - All Bules Tab Method
DYEAR=1995
DGENRE=Blues
TTITLE0=Blues
TTITLE1=Introduction
TTITLE2=Accordage
TTITLE3=Exercice 01-08
TTITLE4=Exercice 09-14
TTITLE5=Impro Penta Majeure
TTITLE6=Impro Penta mineure
TTITLE7=Exercice 17
TTITLE8=Exercice  18-22
TTITLE9=Exercice 23-24
TTITLE10=Exercice 25-28
TTITLE11=Exercice 29-30
TTITLE12=Exercice 31-35
TTITLE13=Exercice 36-39
TTITLE14=Exercice 41
TTITLE15=Exercice 42-45
TTITLE16=Exercice 46-47
TTITLE17=Exercice 48-49
TTITLE18=Exercice 50-51
TTITLE19=Exercice 52-53
TTITLE20=Exercice 54-55
TTITLE21=Exercice 56-57
TTITLE22=Exercice 58-59
TTITLE23=Exercice 60-62
TTITLE24=Exercice 63-65
TTITLE25=Exercice 66-69
TTITLE26=Exercice 70-72
TTITLE27=Exercice 73 Playback A blues - D blues 80
TTITLE28=Exercice 74 Playback E blues 115 - G blues 62 Bm 55
TTITLE29=Exercice 75 Playback E blues 15
TTITLE30=Blues Rock
EXTD=YEAR: 1995
EXTT0=
EXTT1=
EXTT2=
EXTT3=
EXTT4=
EXTT5=
EXTT6=
EXTT7=
EXTT8=
EXTT9=
EXTT10=
EXTT11=
EXTT12=
EXTT13=
EXTT14=
EXTT15=
EXTT16=
EXTT17=
EXTT18=
EXTT19=
EXTT20=
EXTT21=
EXTT22=
EXTT23=
EXTT24=
EXTT25=
EXTT26=
EXTT27=
EXTT28=
EXTT29=
EXTT30=
PLAYORDER=
